<?xml version="1.0" encoding="UTF-8"?>
<svg width="811px" height="580px" viewBox="0 0 811 580" version="1.1" xmlns="http://www.w3.org/2000/svg" xmlns:xlink="http://www.w3.org/1999/xlink">
    <!-- Generator: Sketch 42 (36781) - http://www.bohemiancoding.com/sketch -->
    <title>rip</title>
    <desc>Created with Sketch.</desc>
    <defs>
        <path d="M0,0 L414.08805,0 C415.1928,0 416.20117,0.889064278 416.342212,1.99091407 C416.342212,1.99091407 423.375895,61 425.381575,61 L801,61 L800,564.3 C798.021,564.049 796.81,562.79 794.5,563.3 C792.427,563.758 790.102,566.636 786.5,565.3 C785.137,564.794 785.555,563.758 783.5,563.3 C778.611,569.721 765.713,568.743 757,566.8 C751.679,565.613 749.204,569.495 745,568.3 C742.856,567.691 742.23,564.966 740,565.8 C737.152,566.536 737.046,568.154 733,568.3 C732.62,567.831 728.857,564.431 728.5,564.3 C725.916,563.352 721.938,565.288 720,563.8 C719.235,563.213 718.018,560.621 717.5,559.8 C714.162,561.796 704.635,564.509 698.5,562.8 C696.221,562.165 694.973,558.784 691.5,559.8 L690,561.3 L679,561.3 C676.646,561.989 672.109,563.712 670,564.3 C667.5,563.967 665,563.633 662.5,563.3 C658.461,564.64 658.715,568.181 651.5,568.3 C649.303,565.291 647.427,566.874 643,565.8 C640.23,565.006 639.467,566.904 637,566.3 C634.544,565.699 632.979,562.866 631,562.3 C628.542,561.597 625.047,563.47 622.5,561.8 C621.217,560.958 619.95,558.452 618.5,557.8 C616.834,557.633 615.166,557.467 613.5,557.3 C612.834,556.633 612.166,555.967 611.5,555.3 C609.392,554.726 609.076,556.448 608,556.8 L600.5,556.8 C599.287,557.172 598.176,558.738 596,558.3 C593.523,557.802 592.648,555.49 591,554.8 C588.5,554.967 586,555.133 583.5,555.3 C582.847,555.139 580.955,553.904 580.5,553.8 C578.004,553.23 574.029,555.254 572.5,555.8 L565.5,555.8 C562.116,556.801 557.419,556.886 554,557.8 C551,557.967 548,558.133 545,558.3 C542.924,559.11 539.666,561.228 537.5,561.8 C532.913,563.011 523.442,557.277 520,557.8 C511.449,559.1 504.805,563.492 497,564.8 C492.428,565.566 488.295,562.091 483,563.8 C480.205,564.702 479.311,566.217 475,566.3 C474.918,566.19 460.672,557.351 460.5,557.3 C457.924,556.533 450.85,558.433 447,557.8 C445.256,557.513 445.834,555.769 443.5,556.3 C443,556.8 442.5,557.3 442,557.8 L430,557.8 C429.5,558.467 429,559.133 428.5,559.8 C425.857,561.422 421.627,560.554 419,559.8 L411,559.8 C408.152,558.898 397.328,555.088 395,558.8 C393.825,560.327 394.081,562.218 393.5,563.3 C389.3,561.678 383.601,565.588 381.5,564.8 C380.029,564.248 379.953,562.909 377,562.8 C377.376,564.336 377.301,564.273 377.5,565.3 C376.476,565.656 375.163,565.797 373.5,565.8 C372.927,565.072 372.499,564.7 372,563.8 C368.337,566.691 355.6,571.178 348,568.8 C346.379,568.293 346.316,566.146 343.5,566.8 C338.334,567.633 334.166,567.467 330,567.3 C328.495,567.909 324.433,570.775 321,569.8 L319.5,568.3 C317,568.133 314.5,567.967 312,567.8 L310.5,566.3 C307.814,565.254 305.318,566.284 303,565.3 C301.358,564.603 300.379,562.821 298.5,562.3 C294.334,562.133 290.166,561.967 286,561.8 C285.049,561.517 284.137,560.065 283.5,559.8 L275,559.8 C273.456,561.763 268.424,565.029 266,565.8 C261,565.633 256,565.467 251,565.3 C244.146,569.45 235.539,563.506 232,561.8 C229.459,560.575 228.34,563.346 226,562.8 C222.661,562.022 218.59,559.132 214.5,558.8 C210.859,563.878 205.933,559.047 201,558.3 C196.103,557.558 192.704,563.07 187,560.8 C184.368,559.752 180.596,556.39 175.5,557.8 C172.346,558.673 169.228,561.916 166,562.8 C163.085,563.598 160.123,561.786 158,561.3 C152.353,560.007 149.567,563.947 145,562.8 C142.958,562.287 141.72,560.482 140,559.8 C137.414,558.775 135.393,559.077 133,557.8 C132.333,557.133 131.667,556.467 131,555.8 L119,555.8 C118.212,555.534 117.289,554.065 116.5,553.8 C114.212,553.031 100.708,553.082 99,553.8 C97.717,554.339 95.279,556.319 93.5,556.8 C90.894,557.505 89.987,555.96 87.5,555.8 C86.515,557.386 85.223,558.484 84,559.8 C78.458,559.853 73.294,559.182 69,558.8 C67.945,560.518 67.311,561.206 64.5,561.3 C63.487,560.24 63.029,559.975 61,559.8 C60.014,561.224 59.494,561.307 57,561.3 C55.007,559.333 53.357,560.79 50,559.8 C48.147,559.254 42.788,554.804 40,555.8 C39.346,556.033 37.982,557.661 37,557.8 C34.471,558.158 33.179,554.233 30,555.8 C26.112,557.716 23.286,561.453 18,561.8 C11.278,555.82 5.213,562.842 0,563.8 L0,0 Z" id="path-1"></path>
        <filter x="-50%" y="-50%" width="200%" height="200%" filterUnits="objectBoundingBox" id="filter-2">
            <feOffset dx="0" dy="3" in="SourceAlpha" result="shadowOffsetOuter1"></feOffset>
            <feGaussianBlur stdDeviation="2.5" in="shadowOffsetOuter1" result="shadowBlurOuter1"></feGaussianBlur>
            <feColorMatrix values="0 0 0 0 0   0 0 0 0 0   0 0 0 0 0  0 0 0 0.5 0" type="matrix" in="shadowBlurOuter1"></feColorMatrix>
        </filter>
    </defs>
    <g id="Page-1" stroke="none" stroke-width="1" fill="none" fill-rule="evenodd">
        <g id="Letter" transform="translate(-43.000000, -122.000000)">
            <g id="rip" transform="translate(48.000000, 124.000000)">
                <g id="Page-1">
                    <g id="rip">
                        <g id="Shape" opacity="0.65" fill-rule="nonzero">
                            <g>
                                <use fill="black" fill-opacity="1" filter="url(#filter-2)" xlink:href="#path-1"></use>
                                <use fill="#FFFFFF" fill-rule="evenodd" xlink:href="#path-1"></use>
                            </g>
                        </g>
                        <g id="Shape" fill="#FFFFFF">
                            <path d="M0,0.991744222 C0,0.444019013 0.446270625,0 0.997653211,0 L415.486137,0 C416.594048,0 417.60049,0.892315254 417.734556,1.98154652 C417.734556,1.98154652 422.649089,57.6217448 425.289063,60 L800,60 L800,564.3 C798.021,564.049 796.81,562.79 794.5,563.3 C792.427,563.758 790.102,566.636 786.5,565.3 C785.137,564.794 785.555,563.758 783.5,563.3 C778.611,569.721 765.713,568.743 757,566.8 C751.679,565.613 749.204,569.495 745,568.3 C742.856,567.691 742.23,564.966 740,565.8 C737.152,566.536 737.046,568.154 733,568.3 C732.62,567.831 728.857,564.431 728.5,564.3 C725.916,563.352 721.938,565.288 720,563.8 C719.235,563.213 718.018,560.621 717.5,559.8 C714.162,561.796 704.635,564.509 698.5,562.8 C696.221,562.165 694.973,558.784 691.5,559.8 L690,561.3 L679,561.3 C676.646,561.989 672.109,563.712 670,564.3 C667.5,563.967 665,563.633 662.5,563.3 C658.461,564.64 658.715,568.181 651.5,568.3 C649.303,565.291 647.427,566.874 643,565.8 C640.23,565.006 639.467,566.904 637,566.3 C634.544,565.699 632.979,562.866 631,562.3 C628.542,561.597 625.047,563.47 622.5,561.8 C621.217,560.958 619.95,558.452 618.5,557.8 C616.834,557.633 615.166,557.467 613.5,557.3 C612.834,556.633 612.166,555.967 611.5,555.3 C609.392,554.726 609.076,556.448 608,556.8 L600.5,556.8 C599.287,557.172 598.176,558.738 596,558.3 C593.523,557.802 592.648,555.49 591,554.8 C588.5,554.967 586,555.133 583.5,555.3 C582.847,555.139 580.955,553.904 580.5,553.8 C578.004,553.23 574.029,555.254 572.5,555.8 L565.5,555.8 C562.116,556.801 557.419,556.886 554,557.8 C551,557.967 548,558.133 545,558.3 C542.924,559.11 539.666,561.228 537.5,561.8 C532.913,563.011 523.442,557.277 520,557.8 C511.449,559.1 504.805,563.492 497,564.8 C492.428,565.566 488.295,562.091 483,563.8 C480.205,564.702 479.311,566.217 475,566.3 C474.918,566.19 460.672,557.351 460.5,557.3 C457.924,556.533 450.85,558.433 447,557.8 C445.256,557.513 445.834,555.769 443.5,556.3 C443,556.8 442.5,557.3 442,557.8 L430,557.8 C429.5,558.467 429,559.133 428.5,559.8 C425.857,561.422 421.627,560.554 419,559.8 L411,559.8 C408.152,558.898 397.328,555.088 395,558.8 C393.825,560.327 394.081,562.218 393.5,563.3 C389.3,561.678 383.601,565.588 381.5,564.8 C380.029,564.248 379.953,562.909 377,562.8 C377.376,564.336 377.301,564.273 377.5,565.3 C376.476,565.656 375.163,565.797 373.5,565.8 C372.927,565.072 372.499,564.7 372,563.8 C368.337,566.691 355.6,571.178 348,568.8 C346.379,568.293 346.316,566.146 343.5,566.8 C338.334,567.633 334.166,567.467 330,567.3 C328.495,567.909 324.433,570.775 321,569.8 L319.5,568.3 C317,568.133 314.5,567.967 312,567.8 L310.5,566.3 C307.814,565.254 305.318,566.284 303,565.3 C301.358,564.603 300.379,562.821 298.5,562.3 C294.334,562.133 290.166,561.967 286,561.8 C285.049,561.517 284.137,560.065 283.5,559.8 L275,559.8 C273.456,561.763 268.424,565.029 266,565.8 C261,565.633 256,565.467 251,565.3 C244.146,569.45 235.539,563.506 232,561.8 C229.459,560.575 228.34,563.346 226,562.8 C222.661,562.022 218.59,559.132 214.5,558.8 C210.859,563.878 205.933,559.047 201,558.3 C196.103,557.558 192.704,563.07 187,560.8 C184.368,559.752 180.596,556.39 175.5,557.8 C172.346,558.673 169.228,561.916 166,562.8 C163.085,563.598 160.123,561.786 158,561.3 C152.353,560.007 149.567,563.947 145,562.8 C142.958,562.287 141.72,560.482 140,559.8 C137.414,558.775 135.393,559.077 133,557.8 C132.333,557.133 131.667,556.467 131,555.8 L119,555.8 C118.212,555.534 117.289,554.065 116.5,553.8 C114.212,553.031 100.708,553.082 99,553.8 C97.717,554.339 95.279,556.319 93.5,556.8 C90.894,557.505 89.987,555.96 87.5,555.8 C86.515,557.386 85.223,558.484 84,559.8 C78.458,559.853 73.294,559.182 69,558.8 C67.945,560.518 67.311,561.206 64.5,561.3 C63.487,560.24 63.029,559.975 61,559.8 C60.014,561.224 59.494,561.307 57,561.3 C55.007,559.333 53.357,560.79 50,559.8 C48.147,559.254 42.788,554.804 40,555.8 C39.346,556.033 37.982,557.661 37,557.8 C34.471,558.158 33.179,554.233 30,555.8 C26.112,557.716 23.286,561.453 18,561.8 C11.278,555.82 5.213,562.842 0,563.8 L0,0.991744222 Z" id="path-1"></path>
                        </g>
                    </g>
                </g>
            </g>
        </g>
    </g>
</svg>